<svg xmlns="http://www.w3.org/2000/svg" data-name="Layer 1" viewBox="0 0 100 125" x="0px" y="0px"><path d="M81.57,85.88H22.22a2,2,0,0,1-2-2V43.71a2,2,0,0,1,2-2H81.57a2,2,0,0,1,2,2V83.88A2,2,0,0,1,81.57,85.88Zm-57.35-4H79.57V45.71H24.22Z"/><path d="M35.43,56.25H22.22a2,2,0,0,1,0-4H34.61l6.54-6.54h-8.3a2,2,0,0,1,0-4H46a2,2,0,0,1,1.41,3.42L36.85,55.67A2,2,0,0,1,35.43,56.25Z"/><path d="M22.31,56.25a2.08,2.08,0,0,1-2.09-2V43.71a2,2,0,0,1,2-2H32.85a2,2,0,0,1,1.41,3.42L23.72,55.67A2,2,0,0,1,22.31,56.25Zm1.91-10.54v3.8l3.8-3.8Z"/><path d="M47.3,56.25H35.43A2,2,0,0,1,34,52.84L44.56,42.3A2,2,0,0,1,46,41.71H57.84a2,2,0,0,1,1.42,3.42L48.71,55.67A2,2,0,0,1,47.3,56.25Zm-7-4h6.21L53,45.71H46.8Z"/><path d="M59.17,56.25H47.3a2,2,0,0,1-1.42-3.41L56.43,42.3a2,2,0,0,1,1.41-.59H69.71a2,2,0,0,1,1.41,3.42L60.58,55.67A2,2,0,0,1,59.17,56.25Zm-7-4h6.21l6.54-6.54H58.67Z"/><path d="M71,56.25H59.17a2,2,0,0,1-1.42-3.41L68.3,42.3a2,2,0,1,1,2.82,2.83L64,52.25h6.2l10-10A2,2,0,0,1,83,45.13L72.45,55.67A2,2,0,0,1,71,56.25Z"/><path d="M81.57,56.25H71a2,2,0,0,1,0-4h8.54V43.71a2,2,0,0,1,4,0V54.25A2,2,0,0,1,81.57,56.25Z"/><path d="M32.38,42.58a1.93,1.93,0,0,1-.94-.24L19.67,36.13a2.14,2.14,0,0,1-.63-.52,2,2,0,0,1-.43-3.91l12.53-3.87a2,2,0,0,1,1.53.14l13.18,7a2,2,0,0,1-.34,3.68L33,42.49A2.06,2.06,0,0,1,32.38,42.58Zm-8-8.48,8.18,4.32,7.13-2.21L31.53,31.9Z"/><path d="M22.22,45.71a2.07,2.07,0,0,1-.94-.23,2,2,0,0,1-1-1.19l-3-10.1A2,2,0,0,1,21.11,33l2.45,8.17,8.23-2.55A2,2,0,0,1,33,42.49L22.81,45.62A2,2,0,0,1,22.22,45.71Z"/><path d="M44.92,38.7a2.07,2.07,0,0,1-.94-.23l-13.18-7a2,2,0,0,1,.34-3.68l11.34-3.5a2,2,0,0,1,1.52.14l13.19,7a2,2,0,0,1-.35,3.68l-11.33,3.5A2,2,0,0,1,44.92,38.7Zm-8-8.47,8.18,4.32,5.93-1.84-8.18-4.32Z"/><path d="M56.25,35.2a2,2,0,0,1-.93-.23L42.14,28a2,2,0,0,1,.34-3.68l11.34-3.51a2,2,0,0,1,1.52.15l13.19,7a2,2,0,0,1-.35,3.68l-11.34,3.5A2,2,0,0,1,56.25,35.2Zm-8-8.48L56.46,31l5.93-1.83-8.18-4.32Z"/><path d="M67.59,31.7a1.92,1.92,0,0,1-.93-.24l-13.18-7a2,2,0,0,1-1.06-1.95,2,2,0,0,1,1.4-1.73l11.33-3.5a2,2,0,0,1,1.53.14l13.18,7a2,2,0,0,1,1.06,1.95,2,2,0,0,1-1.4,1.73l-11.34,3.5A2,2,0,0,1,67.59,31.7Zm-8-8.48,8.19,4.32,5.93-1.83-8.19-4.32Z"/><path d="M78.93,28.2A2,2,0,0,1,77,26.79L74.5,18.62l-8.16,2.52a2,2,0,1,1-1.18-3.82l10.07-3.11a2,2,0,0,1,2.5,1.32L80.84,25.6a2,2,0,0,1-1.32,2.51A2.06,2.06,0,0,1,78.93,28.2Z"/><text x="0" y="115" fill="#000000" font-size="5px" font-weight="bold" font-family="'Helvetica Neue', Helvetica, Arial-Unicode, Arial, Sans-serif">Created by SM Rony</text><text x="0" y="120" fill="#000000" font-size="5px" font-weight="bold" font-family="'Helvetica Neue', Helvetica, Arial-Unicode, Arial, Sans-serif">from the Noun Project</text></svg>