<svg viewBox="0 0 42 49" xmlns="http://www.w3.org/2000/svg">
	<path fill-rule="evenodd" clip-rule="evenodd" d="M26 4.15606C26 2.63399 24.3674 1.66975 23.0344 2.40458L3.03444 13.4302C2.39631 13.782 2 14.453 2 15.1817V36.997C2 38.5191 3.63262 39.4833 4.96556 38.7485L6.5 38.0766V40.0766L5.93112 40.5C3.26523 41.9697 0 40.0412 0 36.997V15.1817C0 13.7243 0.792612 12.3823 2.06888 11.6787L22.0689 0.653097C24.7348 -0.81656 28 1.11191 28 4.15606V4.57655L26 5.5L26 4.15606Z" />
	<path fill-rule="evenodd" clip-rule="evenodd" d="M34 9.00573C34 7.48366 32.3674 6.51942 31.0344 7.25425L11.0344 18.2799C10.3963 18.6317 10 19.3027 10 20.0314V41.8467C10 43.3688 11.6326 44.333 12.9656 43.5982L14.5 42.9262V44.9262L13.9311 45.3497C11.2652 46.8193 8 44.8909 8 41.8467V20.0314C8 18.574 8.79261 17.232 10.0689 16.5284L30.0689 5.50277C32.7348 4.03311 36 5.96159 36 9.00573V9.42622L34 10.3497L34 9.00573Z" />
	<path fill-rule="evenodd" clip-rule="evenodd" d="M38.5172 12.2038L18.5172 23.2294C18.1982 23.4053 18 23.7408 18 24.1052V45.9205C18 46.6816 18.8163 47.1637 19.4828 46.7963L39.4828 35.7706C39.8018 35.5947 40 35.2592 40 34.8949V13.0795C40 12.3185 39.1837 11.8364 38.5172 12.2038ZM17.5517 21.478C16.5945 22.0056 16 23.0122 16 24.1052V45.9205C16 48.2036 18.4489 49.65 20.4483 48.5477L40.4483 37.5221C41.4055 36.9944 42 35.9879 42 34.8949V13.0795C42 10.7964 39.5511 9.35007 37.5517 10.4523L17.5517 21.478Z" />
</svg>
