<svg width="88" height="88" viewBox="0 0 88 88" fill="none" xmlns="http://www.w3.org/2000/svg">
<path d="M48.499 31.0005C48.499 25.8247 52.6982 21.6255 57.874 21.6255C63.0498 21.6255 67.249 25.8247 67.249 31.0005C67.249 31.6333 66.8701 32.2036 66.2842 32.4458C65.7021 32.6841 65.0303 32.5513 64.5811 32.106C62.7334 30.4498 60.3545 29.5044 57.8741 29.438C55.3897 29.4927 53.0069 30.438 51.1671 32.106C50.7178 32.5513 50.046 32.6841 49.464 32.4458C48.878 32.2036 48.499 31.6333 48.499 31.0005ZM76.624 7.56253V54.7465C76.456 64.1762 71.706 72.9375 63.894 78.2265C57.976 82.2695 50.98 84.4335 43.812 84.4335C36.6479 84.4335 29.648 82.2694 23.73 78.2265C15.9175 72.9374 11.168 64.1755 11 54.7465V7.56253C11 7.14847 11.1641 6.75003 11.457 6.45703C11.75 6.16403 12.1484 6 12.5625 6H75.0625C75.4766 6 75.875 6.16406 76.168 6.45703C76.461 6.75 76.6251 7.14844 76.6251 7.56253H76.624ZM73.499 9.12503H14.124V54.746C14.2334 63.1718 18.499 71.004 25.522 75.664C30.9087 79.3476 37.284 81.3202 43.811 81.3202C50.338 81.3202 56.713 79.3475 62.1 75.664C69.1234 71.0038 73.389 63.172 73.498 54.746L73.499 9.12503ZM59.437 49.75H28.187C27.7729 49.75 27.3745 49.9141 27.0815 50.2071C26.7885 50.5 26.6245 50.8985 26.6245 51.3126C26.6245 58.2032 34.3354 63.8126 43.8125 63.8126C53.2896 63.8126 61.0005 58.2032 61.0005 51.3126C61.0005 50.8985 60.8364 50.5001 60.5434 50.2071C60.2505 49.9141 59.8511 49.75 59.437 49.75ZM21.339 32.445C21.921 32.6833 22.5929 32.5505 23.0421 32.1052C24.8819 30.4372 27.2648 29.4919 29.7491 29.4372C32.2296 29.5036 34.6085 30.4489 36.4561 32.1052C36.9053 32.5505 37.5772 32.6833 38.1592 32.445C38.7451 32.2028 39.124 31.6325 39.124 30.9997C39.124 25.8239 34.9248 21.6247 29.749 21.6247C24.5732 21.6247 20.374 25.8239 20.374 30.9997C20.374 31.6325 20.7531 32.2028 21.339 32.445Z" fill="black"/>
</svg>
