<svg width="66" height="79" viewBox="0 0 66 79" fill="none" xmlns="http://www.w3.org/2000/svg">
<path fill-rule="evenodd" clip-rule="evenodd" d="M62.499 3.12503H3.124V48.746C3.23338 57.1718 7.499 65.004 14.522 69.664C19.9087 73.3476 26.284 75.3202 32.811 75.3202C39.338 75.3202 45.713 73.3475 51.1 69.664C58.1234 65.0038 62.389 57.172 62.498 48.746L62.499 3.12503ZM46.874 15.6255C41.6982 15.6255 37.499 19.8247 37.499 25.0005C37.499 25.6333 37.878 26.2036 38.464 26.4458C39.046 26.6841 39.7178 26.5513 40.1671 26.106C42.0069 24.438 44.3897 23.4927 46.8741 23.438C49.3545 23.5044 51.7334 24.4498 53.5811 26.106C54.0303 26.5513 54.7021 26.6841 55.2842 26.4458C55.8701 26.2036 56.249 25.6333 56.249 25.0005C56.249 19.8247 52.0498 15.6255 46.874 15.6255ZM17.187 43.75H48.437C48.8511 43.75 49.2505 43.9141 49.5434 44.2071C49.8364 44.5001 50.0005 44.8985 50.0005 45.3126C50.0005 52.2032 42.2896 57.8126 32.8125 57.8126C23.3354 57.8126 15.6245 52.2032 15.6245 45.3126C15.6245 44.8985 15.7885 44.5 16.0815 44.2071C16.3745 43.9141 16.7729 43.75 17.187 43.75ZM12.0421 26.1052C11.5929 26.5505 10.921 26.6833 10.339 26.445C9.75307 26.2028 9.37404 25.6325 9.37404 24.9997C9.37404 19.8239 13.5732 15.6247 18.749 15.6247C23.9248 15.6247 28.124 19.8239 28.124 24.9997C28.124 25.6325 27.7451 26.2028 27.1592 26.445C26.5772 26.6833 25.9053 26.5505 25.4561 26.1052C23.6085 24.4489 21.2296 23.5036 18.7491 23.4372C16.2648 23.4919 13.8819 24.4372 12.0421 26.1052Z" fill="black"/>
<path fill-rule="evenodd" clip-rule="evenodd" d="M65.624 48.7465V1.56253H65.6251C65.6251 1.14844 65.461 0.749999 65.168 0.457029C64.875 0.164059 64.4766 0 64.0625 0H1.56253C1.14844 0 0.750001 0.164029 0.457031 0.457029C0.164061 0.750029 0 1.14847 0 1.56253V48.7465C0.168 58.1755 4.9175 66.9374 12.73 72.2265C18.648 76.2694 25.6479 78.4335 32.812 78.4335C39.98 78.4335 46.976 76.2695 52.894 72.2265C60.706 66.9375 65.456 58.1762 65.624 48.7465ZM3.124 3.12503H62.499L62.498 48.746C62.389 57.172 58.1234 65.0038 51.1 69.664C45.713 73.3475 39.338 75.3202 32.811 75.3202C26.284 75.3202 19.9087 73.3476 14.522 69.664C7.499 65.004 3.23338 57.1718 3.124 48.746V3.12503Z" fill="black"/>
</svg>
