<svg width="24" height="21" viewBox="0 0 24 21" fill="currentColor" xmlns="http://www.w3.org/2000/svg">
<path d="M20.3623 0H6.12891C4.39453 0 2.98438 1.41064 2.98438 3.14404V17.9927C2.98438 18.2393 2.88867 18.4707 2.71485 18.6445C2.5625 18.7964 2.3584 18.8911 2.14453 18.9102L0.997072 18.9141C0.445314 18.916 -0.000975 19.3638 1.59974e-06 19.9155C0.0009782 20.4673 0.448244 20.9141 1 20.9141H2.06348C2.11328 20.9141 2.16309 20.9126 2.21192 20.9102L15.2871 20.8682C17.1826 20.8584 18.7246 19.3091 18.7246 17.4136V7.09833C19.2191 7.3587 19.7703 7.51953 20.3623 7.51953C22.3682 7.51953 24 5.83301 24 3.75977C24 1.68652 22.3682 0 20.3623 0ZM16.7246 17.4136C16.7246 18.2114 16.0752 18.8643 15.2793 18.8682L4.84082 18.9019C4.93555 18.6123 4.98438 18.3062 4.98438 17.9927V3.14404C4.98438 2.51318 5.49805 2 6.12891 2H17.1675C16.8942 2.52753 16.7246 3.12067 16.7246 3.75977V17.4136ZM20.3623 5.51953C19.459 5.51953 18.7246 4.72998 18.7246 3.75977C18.7246 2.78955 19.459 2 20.3623 2C21.2656 2 22 2.78955 22 3.75977C22 4.72998 21.2656 5.51953 20.3623 5.51953Z"/>
<path d="M14.5293 3.41406H6.76855C6.21582 3.41406 5.76855 3.86182 5.76855 4.41406C5.76855 4.96631 6.21582 5.41406 6.76855 5.41406H14.5293C15.082 5.41406 15.5293 4.96631 15.5293 4.41406C15.5293 3.86182 15.082 3.41406 14.5293 3.41406Z" />
<path d="M14.5293 7.37695H6.76855C6.21582 7.37695 5.76855 7.82471 5.76855 8.37695C5.76855 8.9292 6.21582 9.37695 6.76855 9.37695H14.5293C15.082 9.37695 15.5293 8.9292 15.5293 8.37695C15.5293 7.82471 15.082 7.37695 14.5293 7.37695Z" />
<path d="M14.5293 11.3398H6.76855C6.21582 11.3398 5.76855 11.7876 5.76855 12.3398C5.76855 12.8921 6.21582 13.3398 6.76855 13.3398H14.5293C15.082 13.3398 15.5293 12.8921 15.5293 12.3398C15.5293 11.7876 15.082 11.3398 14.5293 11.3398Z" />
<path d="M14.5293 15.3027H6.76855C6.21582 15.3027 5.76855 15.7505 5.76855 16.3027C5.76855 16.855 6.21582 17.3027 6.76855 17.3027H14.5293C15.082 17.3027 15.5293 16.855 15.5293 16.3027C15.5293 15.7505 15.082 15.3027 14.5293 15.3027Z" />
</svg>
