<svg width="28" height="24" viewBox="0 0 28 24" fill="none" xmlns="http://www.w3.org/2000/svg">
<path fill-rule="evenodd" clip-rule="evenodd" d="M25.7839 17.862L14.0209 21.997C14.0039 22.003 13.9839 22.003 13.9669 21.997L2.20389 17.862C2.58889 17.635 2.7859 17.168 2.6549 16.72C2.4989 16.19 1.94291 15.886 1.41391 16.041C0.575907 16.287 0.0258822 17.011 0.000882215 17.814C-0.0241178 18.623 0.483903 19.378 1.3099 19.668C5.0749 20.991 11.6959 23.319 13.3029 23.884C13.7479 24.04 14.2399 24.04 14.6849 23.883C16.2919 23.319 22.9129 20.991 26.6779 19.668C27.5039 19.378 28.0119 18.623 27.9869 17.814C27.9619 17.011 27.4119 16.287 26.5739 16.041C26.0449 15.886 25.4889 16.19 25.3329 16.72C25.2019 17.168 25.3989 17.635 25.7839 17.862ZM25.7839 11.862L14.0209 15.997C14.0039 16.003 13.9839 16.003 13.9669 15.997L2.20389 11.862C2.58889 11.635 2.7859 11.168 2.6549 10.72C2.4989 10.19 1.94291 9.88599 1.41391 10.041C0.575907 10.287 0.0258822 11.011 0.000882215 11.814C-0.0241178 12.623 0.483903 13.378 1.3099 13.668C5.0749 14.991 11.6959 17.319 13.3029 17.884C13.7479 18.04 14.2399 18.04 14.6849 17.883C16.2919 17.319 22.9129 14.991 26.6779 13.668C27.5039 13.378 28.0119 12.623 27.9869 11.814C27.9619 11.011 27.4119 10.287 26.5739 10.041C26.0449 9.88599 25.4889 10.19 25.3329 10.72C25.2019 11.168 25.3989 11.635 25.7839 11.862ZM26.5859 3.76799L14.5929 0.09C14.2029 -0.03 13.7849 -0.03 13.3949 0.09C11.8939 0.55 5.21888 2.59699 1.40188 3.76799C0.578883 4.01999 0.0258822 4.752 0.000882215 5.577C-0.0231178 6.406 0.487896 7.168 1.2959 7.465C5.0609 8.849 11.6829 11.284 13.2899 11.875C13.7429 12.042 14.2449 12.042 14.6979 11.875C16.3049 11.284 22.9269 8.849 26.6919 7.465C27.4999 7.168 28.0109 6.406 27.9869 5.577C27.9619 4.752 27.4089 4.01999 26.5859 3.76799ZM25.8639 5.63799L14.0059 2.002C13.9979 1.999 13.9899 1.999 13.9819 2.002L2.1239 5.63799L13.9799 9.99799C13.9889 10.001 13.9989 10.001 14.0079 9.99799L25.8639 5.63799Z" fill="black"/>
</svg>
