<svg width="24" height="24" viewBox="0 0 24 24" fill="currentColor" xmlns="http://www.w3.org/2000/svg">
<path d="M16.905 12.8369C18.0193 11.8439 18.8048 10.5371 19.1574 9.08961C19.51 7.64209 19.4132 6.122 18.8797 4.7305C18.3463 3.33901 17.4013 2.14169 16.1699 1.29698C14.9385 0.452277 13.4787 0 11.9836 0C10.4885 0 9.02871 0.452277 7.7973 1.29698C6.56588 2.14169 5.62092 3.33901 5.08745 4.7305C4.55398 6.122 4.45715 7.64209 4.80977 9.08961C5.16239 10.5371 5.94785 11.8439 7.0622 12.8369C5.00062 13.5561 3.21399 14.8952 1.94897 16.6694C0.683959 18.4436 0.00296049 20.5652 0 22.7415C0 23.0753 0.133082 23.3954 0.36997 23.6314C0.606858 23.8674 0.928147 24 1.26316 24C1.59817 24 1.91946 23.8674 2.15635 23.6314C2.39323 23.3954 2.52632 23.0753 2.52632 22.7415C2.52849 20.6225 3.37434 18.5908 4.87827 17.0925C6.38219 15.5941 8.42132 14.7513 10.5482 14.7492H13.4518C15.5787 14.7513 17.6178 15.5941 19.1217 17.0925C20.6257 18.5908 21.4715 20.6225 21.4737 22.7415C21.4737 23.0753 21.6068 23.3954 21.8437 23.6314C22.0805 23.8674 22.4018 24 22.7368 24C23.0719 24 23.3931 23.8674 23.63 23.6314C23.8669 23.3954 24 23.0753 24 22.7415C23.9947 20.5613 23.3089 18.4367 22.0376 16.662C20.7664 14.8874 18.9727 13.5506 16.905 12.8369ZM11.9836 2.58092C12.9391 2.58092 13.8732 2.86322 14.6676 3.39212C15.4621 3.92102 16.0814 4.67276 16.447 5.55229C16.8127 6.43182 16.9083 7.39963 16.7219 8.33333C16.5355 9.26703 16.0754 10.1247 15.3997 10.7979C14.7241 11.471 13.8633 11.9294 12.9261 12.1152C11.989 12.3009 11.0176 12.2056 10.1348 11.8413C9.25201 11.4769 8.49748 10.86 7.96662 10.0685C7.43577 9.2769 7.15243 8.34628 7.15243 7.39429C7.15243 6.76219 7.27739 6.13627 7.52018 5.55229C7.76297 4.9683 8.11883 4.43768 8.56744 3.99072C9.47346 3.08804 10.7023 2.58092 11.9836 2.58092Z"/>
</svg>
